<mxfile host="app.diagrams.net" agent="Mozilla/5.0 (Macintosh; Intel Mac OS X 10_15_7) AppleWebKit/537.36 (KHTML, like Gecko) Chrome/136.0.0.0 Safari/537.36" version="27.0.3">
  <diagram name="Trang-1" id="SSM3Go12jD-BQ2z5Fhms">
    <mxGraphModel dx="1426" dy="790" grid="1" gridSize="10" guides="1" tooltips="1" connect="1" arrows="1" fold="1" page="1" pageScale="1" pageWidth="827" pageHeight="1169" math="0" shadow="0">
      <root>
        <mxCell id="0" />
        <mxCell id="1" parent="0" />
        <mxCell id="hJCaLVqS079RPIWuSabh-1" value="&lt;div&gt;&lt;font style=&quot;font-size: 21px;&quot;&gt;&lt;b&gt;Customer Support Class Diagram&lt;/b&gt;&lt;/font&gt;&lt;/div&gt;" style="text;html=1;align=center;verticalAlign=middle;resizable=0;points=[];autosize=1;strokeColor=none;fillColor=none;" parent="1" vertex="1">
          <mxGeometry x="560" y="70" width="360" height="40" as="geometry" />
        </mxCell>
        <mxCell id="hJCaLVqS079RPIWuSabh-2" value="User&lt;div&gt;&lt;br&gt;&lt;/div&gt;" style="shape=umlActor;verticalLabelPosition=bottom;verticalAlign=top;html=1;" parent="1" vertex="1">
          <mxGeometry x="230" y="250" width="20" height="40" as="geometry" />
        </mxCell>
        <mxCell id="hJCaLVqS079RPIWuSabh-3" value="&lt;p style=&quot;margin:0px;margin-top:4px;text-align:center;&quot;&gt;&lt;i&gt;&amp;lt;&amp;lt;Boundary&amp;gt;&amp;gt;&lt;/i&gt;&lt;br&gt;&lt;b&gt;V_&lt;/b&gt;&lt;span style=&quot;background-color: transparent; color: light-dark(rgb(0, 0, 0), rgb(255, 255, 255)); text-align: left;&quot;&gt;&lt;b&gt;ErrorReportForm&lt;/b&gt;&lt;/span&gt;&lt;/p&gt;&lt;hr size=&quot;1&quot; style=&quot;border-style:solid;&quot;&gt;&lt;p style=&quot;margin:0px;margin-left:4px;&quot;&gt;&lt;span style=&quot;background-color: transparent; color: light-dark(rgb(0, 0, 0), rgb(255, 255, 255));&quot;&gt;- deviceId: String&lt;/span&gt;&lt;/p&gt;&lt;p style=&quot;margin:0px;margin-left:4px;&quot;&gt;&lt;span style=&quot;background-color: transparent; color: light-dark(rgb(0, 0, 0), rgb(255, 255, 255));&quot;&gt;- engineerId: String&lt;/span&gt;&lt;/p&gt;&lt;p style=&quot;margin:0px;margin-left:4px;&quot;&gt;&lt;span style=&quot;background-color: transparent; color: light-dark(rgb(0, 0, 0), rgb(255, 255, 255));&quot;&gt;- errorDescription: String&lt;/span&gt;&lt;/p&gt;&lt;p style=&quot;margin:0px;margin-left:4px;&quot;&gt;- dateReported: Date&lt;/p&gt;&lt;hr size=&quot;1&quot; style=&quot;border-style:solid;&quot;&gt;&lt;p style=&quot;margin:0px;margin-left:4px;&quot;&gt;+ enterErrorDetails(errorDes: String ): void&lt;br&gt;+ submitReport(errorDes: String): void&lt;/p&gt;&lt;p style=&quot;margin:0px;margin-left:4px;&quot;&gt;+ showValidationError(errorDes: String)&lt;/p&gt;" style="verticalAlign=top;align=left;overflow=fill;html=1;whiteSpace=wrap;" parent="1" vertex="1">
          <mxGeometry x="350" y="190" width="190" height="210" as="geometry" />
        </mxCell>
        <mxCell id="hJCaLVqS079RPIWuSabh-4" value="&lt;p style=&quot;margin:0px;margin-top:4px;text-align:center;&quot;&gt;&lt;i&gt;&amp;lt;&amp;lt;Controller&amp;gt;&amp;gt;&lt;/i&gt;&lt;br&gt;&lt;b&gt;C_&lt;/b&gt;&lt;span style=&quot;background-color: transparent; color: light-dark(rgb(0, 0, 0), rgb(255, 255, 255)); text-align: left;&quot;&gt;&lt;b&gt;ErrorReportController&lt;/b&gt;&lt;/span&gt;&lt;/p&gt;&lt;hr size=&quot;1&quot; style=&quot;border-style:solid;&quot;&gt;&lt;p style=&quot;margin:0px;margin-left:4px;&quot;&gt;&lt;br&gt;&lt;/p&gt;&lt;hr size=&quot;1&quot; style=&quot;border-style:solid;&quot;&gt;&lt;p style=&quot;margin:0px;margin-left:4px;&quot;&gt;+&amp;nbsp;&lt;span style=&quot;background-color: transparent; color: light-dark(rgb(0, 0, 0), rgb(255, 255, 255));&quot;&gt;createErrorReport(m: M_ErrorReport&lt;/span&gt;&lt;span style=&quot;background-color: transparent; color: light-dark(rgb(0, 0, 0), rgb(255, 255, 255));&quot;&gt;): M_ErrorReport&lt;/span&gt;&lt;/p&gt;&lt;p style=&quot;margin:0px;margin-left:4px;&quot;&gt;&lt;span style=&quot;background-color: transparent; color: light-dark(rgb(0, 0, 0), rgb(255, 255, 255));&quot;&gt;+ notifyEngineer(engineerId: String, report: M_ErrorReport): void&amp;nbsp;&lt;/span&gt;&lt;/p&gt;&lt;p style=&quot;margin:0px;margin-left:4px;&quot;&gt;&lt;span style=&quot;background-color: transparent; color: light-dark(rgb(0, 0, 0), rgb(255, 255, 255));&quot;&gt;+ updateErrorStatus(reportId: String, status: String): M_ErrorReport&lt;/span&gt;&lt;/p&gt;" style="verticalAlign=top;align=left;overflow=fill;html=1;whiteSpace=wrap;" parent="1" vertex="1">
          <mxGeometry x="680" y="190" width="190" height="280" as="geometry" />
        </mxCell>
        <mxCell id="hJCaLVqS079RPIWuSabh-5" value="&lt;p style=&quot;margin:0px;margin-top:4px;text-align:center;&quot;&gt;&lt;i&gt;&amp;lt;&amp;lt;Entity&amp;gt;&amp;gt;&lt;/i&gt;&lt;br&gt;&lt;b&gt;M_ErrorReport&lt;/b&gt;&lt;/p&gt;&lt;hr size=&quot;1&quot; style=&quot;border-style:solid;&quot;&gt;&lt;p style=&quot;margin:0px;margin-left:4px;&quot;&gt;- reportId: String&lt;/p&gt;&lt;p style=&quot;margin:0px;margin-left:4px;&quot;&gt;- engineerId: String&lt;/p&gt;&lt;p style=&quot;margin:0px;margin-left:4px;&quot;&gt;- deviceId: String&lt;/p&gt;&lt;p style=&quot;margin:0px;margin-left:4px;&quot;&gt;- errorDescription: String&lt;/p&gt;&lt;p style=&quot;margin:0px;margin-left:4px;&quot;&gt;- dateReported: Date&lt;/p&gt;&lt;p style=&quot;margin:0px;margin-left:4px;&quot;&gt;- status: String&lt;/p&gt;&lt;hr size=&quot;1&quot; style=&quot;border-style:solid;&quot;&gt;&lt;p style=&quot;margin:0px;margin-left:4px;&quot;&gt;&lt;br&gt;&lt;/p&gt;" style="verticalAlign=top;align=left;overflow=fill;html=1;whiteSpace=wrap;" parent="1" vertex="1">
          <mxGeometry x="1010" y="260" width="190" height="160" as="geometry" />
        </mxCell>
        <mxCell id="hJCaLVqS079RPIWuSabh-6" value="&lt;p style=&quot;margin:0px;margin-top:4px;text-align:center;&quot;&gt;&lt;i&gt;&amp;lt;&amp;lt;Boundary&amp;gt;&amp;gt;&lt;/i&gt;&lt;br&gt;&lt;b&gt;V_ErrorNotification&lt;/b&gt;&lt;/p&gt;&lt;hr size=&quot;1&quot; style=&quot;border-style:solid;&quot;&gt;&lt;p style=&quot;margin:0px;margin-left:4px;&quot;&gt;- errorReport: M_ErrorReport&lt;/p&gt;&lt;hr size=&quot;1&quot; style=&quot;border-style:solid;&quot;&gt;&lt;p style=&quot;margin:0px;margin-left:4px;&quot;&gt;+ displayNotification(errorReport: M_ErrorReport): void&lt;/p&gt;" style="verticalAlign=top;align=left;overflow=fill;html=1;whiteSpace=wrap;" parent="1" vertex="1">
          <mxGeometry x="350" y="510" width="190" height="120" as="geometry" />
        </mxCell>
        <mxCell id="hJCaLVqS079RPIWuSabh-7" value="&lt;p style=&quot;margin:0px;margin-top:4px;text-align:center;&quot;&gt;&lt;i&gt;&amp;lt;&amp;lt;Boundary&amp;gt;&amp;gt;&lt;/i&gt;&lt;br&gt;&lt;b&gt;V_InvoiceCreation&lt;/b&gt;&lt;/p&gt;&lt;hr size=&quot;1&quot; style=&quot;border-style:solid;&quot;&gt;&lt;p style=&quot;margin:0px;margin-left:4px;&quot;&gt;+ reportId: String&lt;/p&gt;&lt;p style=&quot;margin:0px;margin-left:4px;&quot;&gt;+ amount: Double&lt;/p&gt;&lt;hr size=&quot;1&quot; style=&quot;border-style:solid;&quot;&gt;&lt;p style=&quot;margin:0px;margin-left:4px;&quot;&gt;+ validateData(reportId: String, amount: Double)&lt;/p&gt;&lt;p style=&quot;margin:0px;margin-left:4px;&quot;&gt;+ submitInvoice(reportId: String, amount: Double): void&lt;/p&gt;" style="verticalAlign=top;align=left;overflow=fill;html=1;whiteSpace=wrap;" parent="1" vertex="1">
          <mxGeometry x="685" y="510" width="190" height="160" as="geometry" />
        </mxCell>
        <mxCell id="hJCaLVqS079RPIWuSabh-8" value="&lt;p style=&quot;margin:0px;margin-top:4px;text-align:center;&quot;&gt;&lt;i&gt;&amp;lt;&amp;lt;Entity&amp;gt;&amp;gt;&lt;/i&gt;&lt;br&gt;&lt;b&gt;M_Invoice&lt;/b&gt;&lt;/p&gt;&lt;hr size=&quot;1&quot; style=&quot;border-style:solid;&quot;&gt;&lt;p style=&quot;margin:0px;margin-left:4px;&quot;&gt;- invoiceId: String&lt;/p&gt;&lt;p style=&quot;margin:0px;margin-left:4px;&quot;&gt;- reportId: String,&lt;/p&gt;&lt;p style=&quot;margin:0px;margin-left:4px;&quot;&gt;- amount: Double,&lt;/p&gt;&lt;p style=&quot;margin:0px;margin-left:4px;&quot;&gt;- status: String&lt;/p&gt;&lt;hr size=&quot;1&quot; style=&quot;border-style:solid;&quot;&gt;&lt;p style=&quot;margin:0px;margin-left:4px;&quot;&gt;&lt;br&gt;&lt;/p&gt;" style="verticalAlign=top;align=left;overflow=fill;html=1;whiteSpace=wrap;" parent="1" vertex="1">
          <mxGeometry x="1300" y="525" width="190" height="130" as="geometry" />
        </mxCell>
        <mxCell id="hJCaLVqS079RPIWuSabh-9" value="&lt;p style=&quot;margin:0px;margin-top:4px;text-align:center;&quot;&gt;&lt;i&gt;&amp;lt;&amp;lt;Controller&amp;gt;&amp;gt;&lt;/i&gt;&lt;br&gt;&lt;b&gt;C_InvoiceController&lt;/b&gt;&lt;/p&gt;&lt;hr size=&quot;1&quot; style=&quot;border-style:solid;&quot;&gt;&lt;p style=&quot;margin:0px;margin-left:4px;&quot;&gt;&lt;br&gt;&lt;/p&gt;&lt;hr size=&quot;1&quot; style=&quot;border-style:solid;&quot;&gt;&lt;p style=&quot;margin:0px;margin-left:4px;&quot;&gt;+ createInvoice(&lt;/p&gt;&lt;p style=&quot;margin:0px;margin-left:4px;&quot;&gt;&lt;span style=&quot;white-space: pre;&quot;&gt;&#x9;&lt;/span&gt;invoiceId: String,&lt;br&gt;&lt;/p&gt;&lt;p style=&quot;margin:0px;margin-left:4px;&quot;&gt;&lt;span style=&quot;white-space: pre;&quot;&gt;&#x9;&lt;/span&gt;reportId: String,&lt;br&gt;&lt;/p&gt;&lt;p style=&quot;margin:0px;margin-left:4px;&quot;&gt;&lt;span style=&quot;white-space: pre;&quot;&gt;&#x9;&lt;/span&gt;amount: Double,&lt;br&gt;&lt;/p&gt;&lt;p style=&quot;margin:0px;margin-left:4px;&quot;&gt;&lt;span style=&quot;white-space: pre;&quot;&gt;&#x9;&lt;/span&gt;status: String&lt;br&gt;&lt;/p&gt;&lt;p style=&quot;margin:0px;margin-left:4px;&quot;&gt;): M_Invoice&lt;/p&gt;&lt;p style=&quot;margin:0px;margin-left:4px;&quot;&gt;&lt;br&gt;&lt;/p&gt;&lt;p style=&quot;margin:0px;margin-left:4px;&quot;&gt;+ updateInvoice(&lt;/p&gt;&lt;p style=&quot;margin:0px;margin-left:4px;&quot;&gt;&lt;span style=&quot;white-space: pre;&quot;&gt;&#x9;&lt;/span&gt;invoiceId: String,&lt;br&gt;&lt;/p&gt;&lt;p style=&quot;margin:0px;margin-left:4px;&quot;&gt;&lt;span style=&quot;white-space: pre;&quot;&gt;&#x9;&lt;/span&gt;amount: Double,&lt;br&gt;&lt;/p&gt;&lt;p style=&quot;margin:0px;margin-left:4px;&quot;&gt;&lt;span style=&quot;white-space: pre;&quot;&gt;&#x9;&lt;/span&gt;status: String&lt;br&gt;&lt;/p&gt;&lt;p style=&quot;margin:0px;margin-left:4px;&quot;&gt;): M_Invoice&lt;/p&gt;" style="verticalAlign=top;align=left;overflow=fill;html=1;whiteSpace=wrap;" parent="1" vertex="1">
          <mxGeometry x="1000" y="490" width="190" height="270" as="geometry" />
        </mxCell>
        <mxCell id="hJCaLVqS079RPIWuSabh-10" value="&lt;p style=&quot;margin:0px;margin-top:4px;text-align:center;&quot;&gt;&lt;i&gt;&amp;lt;&amp;lt;Boundary&amp;gt;&amp;gt;&lt;/i&gt;&lt;br&gt;&lt;b&gt;V_PaymentForm&lt;/b&gt;&lt;/p&gt;&lt;hr size=&quot;1&quot; style=&quot;border-style:solid;&quot;&gt;&lt;p style=&quot;margin:0px;margin-left:4px;&quot;&gt;- invoice: M_Invoice&lt;br&gt;- amount: Double&lt;/p&gt;&lt;p style=&quot;margin:0px;margin-left:4px;&quot;&gt;- isCancel: Bool&lt;/p&gt;&lt;hr size=&quot;1&quot; style=&quot;border-style:solid;&quot;&gt;&lt;p style=&quot;margin:0px;margin-left:4px;&quot;&gt;+ confirmCancel(&amp;nbsp;&lt;/p&gt;&lt;p style=&quot;margin:0px;margin-left:4px;&quot;&gt;&lt;span style=&quot;white-space: pre;&quot;&gt;&#x9;&lt;/span&gt;invoiceId: String,&lt;br&gt;&lt;/p&gt;&lt;p style=&quot;margin:0px;margin-left:4px;&quot;&gt;&lt;span style=&quot;white-space: pre;&quot;&gt;&#x9;&lt;/span&gt;isCancle: Bool&lt;br&gt;&lt;/p&gt;&lt;p style=&quot;margin:0px;margin-left:4px;&quot;&gt;)&lt;br&gt;+ submitPayment(&lt;/p&gt;&lt;p style=&quot;margin:0px;margin-left:4px;&quot;&gt;&lt;span style=&quot;white-space: pre;&quot;&gt;&#x9;&lt;/span&gt;invoiceId: String,&lt;br&gt;&lt;/p&gt;&lt;p style=&quot;margin:0px;margin-left:4px;&quot;&gt;&lt;span style=&quot;white-space: pre;&quot;&gt;&#x9;&lt;/span&gt;amount: Double&lt;br&gt;&lt;/p&gt;&lt;p style=&quot;margin:0px;margin-left:4px;&quot;&gt;&lt;span style=&quot;white-space: pre;&quot;&gt;&#x9;&lt;/span&gt;status: String&lt;br&gt;&lt;/p&gt;&lt;p style=&quot;margin:0px;margin-left:4px;&quot;&gt;)&lt;/p&gt;" style="verticalAlign=top;align=left;overflow=fill;html=1;whiteSpace=wrap;" parent="1" vertex="1">
          <mxGeometry x="290" y="710" width="190" height="240" as="geometry" />
        </mxCell>
        <mxCell id="hJCaLVqS079RPIWuSabh-11" value="" style="endArrow=block;endFill=1;html=1;edgeStyle=orthogonalEdgeStyle;align=left;verticalAlign=top;rounded=0;entryX=-0.021;entryY=0.387;entryDx=0;entryDy=0;entryPerimeter=0;" parent="1" target="hJCaLVqS079RPIWuSabh-3" edge="1">
          <mxGeometry x="-1" relative="1" as="geometry">
            <mxPoint x="250" y="270" as="sourcePoint" />
            <mxPoint x="340" y="270" as="targetPoint" />
          </mxGeometry>
        </mxCell>
        <mxCell id="hJCaLVqS079RPIWuSabh-12" value="1" style="edgeLabel;resizable=0;html=1;align=left;verticalAlign=bottom;" parent="hJCaLVqS079RPIWuSabh-11" connectable="0" vertex="1">
          <mxGeometry x="-1" relative="1" as="geometry" />
        </mxCell>
        <mxCell id="hJCaLVqS079RPIWuSabh-13" value="report error" style="text;html=1;align=center;verticalAlign=middle;resizable=0;points=[];autosize=1;strokeColor=none;fillColor=none;" parent="1" vertex="1">
          <mxGeometry x="250" y="238" width="80" height="30" as="geometry" />
        </mxCell>
        <mxCell id="hJCaLVqS079RPIWuSabh-14" value="Send" style="text;html=1;align=center;verticalAlign=middle;resizable=0;points=[];autosize=1;strokeColor=none;fillColor=none;" parent="1" vertex="1">
          <mxGeometry x="580" y="272" width="50" height="30" as="geometry" />
        </mxCell>
        <mxCell id="hJCaLVqS079RPIWuSabh-15" value="1" style="text;html=1;align=center;verticalAlign=middle;resizable=0;points=[];autosize=1;strokeColor=none;fillColor=none;" parent="1" vertex="1">
          <mxGeometry x="655" y="298" width="30" height="30" as="geometry" />
        </mxCell>
        <mxCell id="hJCaLVqS079RPIWuSabh-16" value="1" style="text;html=1;align=center;verticalAlign=middle;resizable=0;points=[];autosize=1;strokeColor=none;fillColor=none;" parent="1" vertex="1">
          <mxGeometry x="530" y="298" width="30" height="30" as="geometry" />
        </mxCell>
        <mxCell id="hJCaLVqS079RPIWuSabh-17" value="" style="endArrow=open;endFill=1;endSize=12;html=1;rounded=0;" parent="1" edge="1">
          <mxGeometry width="160" relative="1" as="geometry">
            <mxPoint x="540" y="299.28999999999996" as="sourcePoint" />
            <mxPoint x="680" y="299" as="targetPoint" />
          </mxGeometry>
        </mxCell>
        <mxCell id="hJCaLVqS079RPIWuSabh-18" value="" style="endArrow=classic;html=1;rounded=0;entryX=-0.011;entryY=0.56;entryDx=0;entryDy=0;entryPerimeter=0;exitX=0.992;exitY=0.573;exitDx=0;exitDy=0;exitPerimeter=0;" parent="1" source="hJCaLVqS079RPIWuSabh-4" target="hJCaLVqS079RPIWuSabh-5" edge="1">
          <mxGeometry width="50" height="50" relative="1" as="geometry">
            <mxPoint x="770" y="460" as="sourcePoint" />
            <mxPoint x="820" y="410" as="targetPoint" />
          </mxGeometry>
        </mxCell>
        <mxCell id="hJCaLVqS079RPIWuSabh-19" value="" style="endArrow=classic;html=1;rounded=0;exitX=0.014;exitY=0.7;exitDx=0;exitDy=0;exitPerimeter=0;entryX=0.623;entryY=0.019;entryDx=0;entryDy=0;entryPerimeter=0;" parent="1" source="hJCaLVqS079RPIWuSabh-4" target="hJCaLVqS079RPIWuSabh-6" edge="1">
          <mxGeometry width="50" height="50" relative="1" as="geometry">
            <mxPoint x="770" y="530" as="sourcePoint" />
            <mxPoint x="820" y="480" as="targetPoint" />
          </mxGeometry>
        </mxCell>
        <mxCell id="hJCaLVqS079RPIWuSabh-20" value="Notify" style="text;html=1;align=center;verticalAlign=middle;resizable=0;points=[];autosize=1;strokeColor=none;fillColor=none;" parent="1" vertex="1">
          <mxGeometry x="555" y="410" width="50" height="30" as="geometry" />
        </mxCell>
        <mxCell id="hJCaLVqS079RPIWuSabh-21" value="Engineer" style="shape=umlActor;verticalLabelPosition=bottom;verticalAlign=top;html=1;outlineConnect=0;" parent="1" vertex="1">
          <mxGeometry x="250" y="520" width="30" height="60" as="geometry" />
        </mxCell>
        <mxCell id="hJCaLVqS079RPIWuSabh-22" value="" style="endArrow=classic;html=1;rounded=0;exitX=0.5;exitY=0.5;exitDx=0;exitDy=0;exitPerimeter=0;entryX=-0.003;entryY=0.342;entryDx=0;entryDy=0;entryPerimeter=0;" parent="1" source="hJCaLVqS079RPIWuSabh-21" target="hJCaLVqS079RPIWuSabh-6" edge="1">
          <mxGeometry width="50" height="50" relative="1" as="geometry">
            <mxPoint x="460" y="470" as="sourcePoint" />
            <mxPoint x="510" y="420" as="targetPoint" />
          </mxGeometry>
        </mxCell>
        <mxCell id="hJCaLVqS079RPIWuSabh-23" value="Read" style="edgeLabel;html=1;align=center;verticalAlign=middle;resizable=0;points=[];" parent="hJCaLVqS079RPIWuSabh-22" vertex="1" connectable="0">
          <mxGeometry x="0.2508" y="1" relative="1" as="geometry">
            <mxPoint x="-11" y="-10" as="offset" />
          </mxGeometry>
        </mxCell>
        <mxCell id="hJCaLVqS079RPIWuSabh-24" value="" style="endArrow=classic;html=1;rounded=0;exitX=1;exitY=0.5;exitDx=0;exitDy=0;entryX=0.024;entryY=0.381;entryDx=0;entryDy=0;entryPerimeter=0;" parent="1" source="hJCaLVqS079RPIWuSabh-6" target="hJCaLVqS079RPIWuSabh-7" edge="1">
          <mxGeometry width="50" height="50" relative="1" as="geometry">
            <mxPoint x="710" y="600" as="sourcePoint" />
            <mxPoint x="760" y="550" as="targetPoint" />
          </mxGeometry>
        </mxCell>
        <mxCell id="hJCaLVqS079RPIWuSabh-25" value="" style="endArrow=classic;html=1;rounded=0;exitX=0.988;exitY=0.571;exitDx=0;exitDy=0;exitPerimeter=0;" parent="1" source="hJCaLVqS079RPIWuSabh-7" edge="1">
          <mxGeometry width="50" height="50" relative="1" as="geometry">
            <mxPoint x="750" y="650" as="sourcePoint" />
            <mxPoint x="1000" y="601" as="targetPoint" />
          </mxGeometry>
        </mxCell>
        <mxCell id="hJCaLVqS079RPIWuSabh-26" value="" style="endArrow=classic;html=1;rounded=0;exitX=0.988;exitY=0.571;exitDx=0;exitDy=0;exitPerimeter=0;entryX=0.001;entryY=0.578;entryDx=0;entryDy=0;entryPerimeter=0;" parent="1" target="hJCaLVqS079RPIWuSabh-8" edge="1">
          <mxGeometry width="50" height="50" relative="1" as="geometry">
            <mxPoint x="1190" y="600" as="sourcePoint" />
            <mxPoint x="1317" y="600" as="targetPoint" />
          </mxGeometry>
        </mxCell>
        <mxCell id="hJCaLVqS079RPIWuSabh-27" style="edgeStyle=orthogonalEdgeStyle;rounded=0;orthogonalLoop=1;jettySize=auto;html=1;exitX=0;exitY=1;exitDx=0;exitDy=0;exitPerimeter=0;entryX=0.005;entryY=0.614;entryDx=0;entryDy=0;entryPerimeter=0;" parent="1" source="hJCaLVqS079RPIWuSabh-2" target="hJCaLVqS079RPIWuSabh-10" edge="1">
          <mxGeometry relative="1" as="geometry" />
        </mxCell>
        <mxCell id="hJCaLVqS079RPIWuSabh-28" value="Pay" style="edgeLabel;html=1;align=center;verticalAlign=middle;resizable=0;points=[];" parent="hJCaLVqS079RPIWuSabh-27" vertex="1" connectable="0">
          <mxGeometry x="-0.1002" y="-4" relative="1" as="geometry">
            <mxPoint x="-16" y="-12" as="offset" />
          </mxGeometry>
        </mxCell>
        <mxCell id="hJCaLVqS079RPIWuSabh-29" value="" style="endArrow=classic;html=1;rounded=0;exitX=0.995;exitY=0.63;exitDx=0;exitDy=0;exitPerimeter=0;entryX=0.5;entryY=1;entryDx=0;entryDy=0;" parent="1" source="hJCaLVqS079RPIWuSabh-10" target="hJCaLVqS079RPIWuSabh-9" edge="1">
          <mxGeometry width="50" height="50" relative="1" as="geometry">
            <mxPoint x="740" y="590" as="sourcePoint" />
            <mxPoint x="790" y="540" as="targetPoint" />
            <Array as="points">
              <mxPoint x="1095" y="861" />
            </Array>
          </mxGeometry>
        </mxCell>
        <mxCell id="hJCaLVqS079RPIWuSabh-30" value="Update Invoice" style="edgeLabel;html=1;align=center;verticalAlign=middle;resizable=0;points=[];" parent="hJCaLVqS079RPIWuSabh-29" vertex="1" connectable="0">
          <mxGeometry x="-0.1293" y="-5" relative="1" as="geometry">
            <mxPoint x="-1" y="14" as="offset" />
          </mxGeometry>
        </mxCell>
        <mxCell id="hJCaLVqS079RPIWuSabh-31" value="" style="endArrow=open;endSize=12;dashed=1;html=1;rounded=0;entryX=1;entryY=0.5;entryDx=0;entryDy=0;" parent="1" target="hJCaLVqS079RPIWuSabh-5" edge="1">
          <mxGeometry width="160" relative="1" as="geometry">
            <mxPoint x="1390" y="525" as="sourcePoint" />
            <mxPoint x="1390" y="350" as="targetPoint" />
            <Array as="points">
              <mxPoint x="1390" y="340" />
            </Array>
          </mxGeometry>
        </mxCell>
      </root>
    </mxGraphModel>
  </diagram>
</mxfile>
